<svg height="80" viewBox="0 0 44 80" width="44" xmlns="http://www.w3.org/2000/svg"><g fill="none" fill-rule="evenodd"><path d="m-18 0h80v80h-80z" fill="#d8d8d8" opacity="0"/><path d="m13.4465129 3.17471635s-.8804195-3.17471635-3.201075-3.17471635h-1.92078659s-3.16144201.35719068-3.20107504 3.17471635v12.06308005h8.32364433v-12.06308005zm28.1741314 15.87288005h-4.4820713v-6.348731h-8.3243521v6.348731h-26.89313513s-1.92078657-.2645597-1.92078657 1.2701672v58.4101494s-.05378769 1.2701672 1.2809962 1.2701672h40.979847s1.2802885.106666 1.2802885-1.2701672v-58.4101494s.1606553-1.2701672-1.9207866-1.2701672zm-35.21748729 8.25328h30.73541599v16.5065602h-30.73541599zm31.37591409 44.443222c0 1.2701672-1.2809962 1.2701672-1.2809962 1.2701672h-29.45512752c-1.32062924 0-1.28099621-1.2701672-1.28099621-2.5396327s1.28099621-1.2701672 1.28099621-1.2701672h29.45512752c1.3199215 0 1.2809962 1.2701672 1.2809962 1.2701672zm-1.2802884-7.6188982h-29.45512759c-1.23994771 0-1.2809962-1.2701672-1.2809962-2.5396327s1.2809962-1.2701673 1.2809962-1.2701673h29.45512759c1.2809962 0 1.2809962 1.2701673 1.2809962 2.5396328 0 1.2694654-1.2809962 1.2701672-1.2809962 1.2701672zm1.2802884-9.5227456c0 1.2301675-1.2809962 1.2694655-1.2809962 1.2694655h-29.45512752c-1.28099621 0-1.28099621-1.2694655-1.28099621-1.2694655v-1.2701672c0-1.1908695 1.28099621-1.2701673 1.28099621-1.2701673h29.45512752c1.2809962 0 1.2809962 1.2701673 1.2809962 1.2701673z" fill="#2cd3a0" fill-rule="nonzero"/></g></svg>