<svg height="78" viewBox="0 0 77 78" width="77" xmlns="http://www.w3.org/2000/svg"><g fill="none" fill-rule="evenodd"><path d="m-2-2h80v80h-80z" fill="#d8d8d8" opacity="0"/><g fill="#ff9f5e"><path d="m74.6498596 72.1269659h-72.2997192c-1.2972775 0-2.3501404 1.3135318-2.3501404 2.9319905 0 1.6184588 1.0528629 2.9319905 2.3501404 2.9319905h72.2997192c1.2972775 0 2.3501404-1.3135317 2.3501404-2.9319905 0-1.6184587-1.0528629-2.9319905-2.3501404-2.9319905zm-65.49702267-8.0922937c0 1.9468417 1.47257807 3.5183886 3.29681667 3.5183886h51.9907989c1.8242386 0 3.2968167-1.5715469 3.2968167-3.5183886v-34.3629285c0-7.9163743-2.9891138-15.3753581-8.4068825-20.99305186-5.39579-5.59423785-12.5388928-8.67869184-20.1105817-8.67869184h-1.5385145c-7.5716889 0-14.7147917 3.08445399-20.1105817 8.67869184-5.4177687 5.61769376-8.40688248 13.07667756-8.40688248 20.99305186v34.3629285zm28.51746417-56.99789504h1.5385145c12.0883278 0 21.9238308 10.15641504 21.9238308 22.63496654v30.8445399h-29.9570741-15.4400914v-30.8445399c.0109894-12.4785515 9.8464924-22.63496654 21.9348202-22.63496654z" fill-rule="nonzero"/><rect height="30" rx="4.5" width="9" x="34" y="16"/><circle cx="38.5" cy="53.5" r="4.5"/></g></g></svg>