<svg height="81" viewBox="0 0 74 81" width="74" xmlns="http://www.w3.org/2000/svg"><g fill="none" fill-rule="evenodd"><path d="m-6 1h80v80h-80z" fill="#d8d8d8" opacity="0"/><path d="m42.3529412 37.525h-12.7058824c-1.1695442 0-2.117647.8842376-2.117647 1.975v19.75c0 1.0907624.9481028 1.975 2.117647 1.975h12.7058824c1.1695441 0 2.117647-.8842376 2.117647-1.975v-19.75c0-1.0907624-.9481029-1.975-2.117647-1.975zm-12.7058824-37.525c3.5086325 0 6.3529412 2.65271286 6.3529412 5.925v1.975h12.7058823v-.34365c.0008683-2.04240645 1.6710643-3.74738736 3.852-3.932225l14.8235294-1.258075c1.185117-.10044056 2.3608662.26874259 3.2395332 1.0172076.878667.74846502 1.3791783 1.807152 1.3790551 2.9169924v7.1495c.0001232 1.1098404-.5003881 2.1685274-1.3790551 2.9169924s-2.0544162 1.1176482-3.2395332 1.0172076l-14.8235294-1.258075c-2.1809357-.1848376-3.8511317-1.8898185-3.852-3.932225v-.34365h-12.7058823v3.95h8.4705882c2.3390884 0 4.2352941 1.7684752 4.2352941 3.95v55.3c0 2.1815248-1.8962057 3.95-4.2352941 3.95h-29.6470588c-2.3390883 0-4.2352941-1.7684752-4.2352941-3.95v-55.3c0-2.1815248 1.8962058-3.95 4.2352941-3.95h8.4705882v-3.95h-16.94117643c-1.07359375.0001321-1.97721306.7495265-2.10282352 1.743925l-.01482353.231075c-.00124277 1.0449595-.87503392 1.9081755-1.99354196 1.9694149s-2.09459512-.7006939-2.22692863-1.7383399l-.01482353-.231075c0-3.2722871 2.84430865-5.925 6.35294117-5.925h16.94117643v-1.975c0-3.27228714 2.8443087-5.925 6.3529412-5.925zm12.7058824 19.75h-25.4117647c-1.1695442 0-2.1176471.8842376-2.1176471 1.975v51.35c0 1.0907624.9481029 1.975 2.1176471 1.975h25.4117647c1.1695441 0 2.117647-.8842376 2.117647-1.975v-7.9h-16.9411764c-2.3390884 0-4.2352942-1.7684752-4.2352942-3.95v-23.7c0-2.1815248 1.8962058-3.95 4.2352942-3.95h16.9411764v-11.85c0-1.0907624-.9481029-1.975-2.117647-1.975zm-12.7058824-15.8c-1.0735937.00013208-1.9772131.74952655-2.1028235 1.743925l-.0148235.231075v9.875h4.2352941v-9.875c-.0001417-1.00127529-.8036621-1.8440258-1.8698824-1.961175zm36 2.5359c-.0636244-.00003824-.1272183.00259777-.1905882.0079l-10.5882353.898625c-1.0912913.09197351-1.9271227.94517211-1.9270588 1.9671v1.027c-.0011604 1.0226853.8349581 1.8770338 1.9270588 1.969075l10.5882353.898625c.5923844.0499259 1.1799719-.1347984 1.6190648-.5089975s.6892051-.9033705.6891705-1.4581025v-2.82425c0-1.09076238-.9481029-1.975-2.1176471-1.975z" fill="#ff6355" fill-rule="nonzero" stroke="#ff6355" transform="translate(1 1)"/></g></svg>