<svg height="81" viewBox="0 0 77 81" width="77" xmlns="http://www.w3.org/2000/svg"><g fill="none" fill-rule="evenodd"><path d="m-2 1h80v80h-80z" fill="#d8d8d8" opacity="0"/><g fill-rule="nonzero" transform="translate(1 1)"><path d="m54.1757497 24.3544995c-4.4786931-4.4795471-10.4301454-6.9450902-16.7581899-6.9450902-6.32993 0-12.2831038 2.4655431-16.7581899 6.9450902-4.4768897 4.4795471-6.9409701 10.4327277-6.9409701 16.7681375 0 4.2289654 1.1263337 8.3832075 3.2599737 12.0095466 1.8618116 3.1694684 4.4467229 5.8714031 7.5219255 7.8748261v11.566866c0 3.0130497 2.4480954 5.4661252 5.461161 5.4661252h14.8803933c3.0129837 0 5.4664894-2.4530755 5.4664894-5.4661252v-11.5491489c3.076924-2.0015365 5.6690491-4.7035532 7.5379105-7.8783532 2.1389684-3.6298661 3.2688271-7.7877171 3.2688271-12.0237366 0-6.3354098-2.4658839-12.2885904-6.9392487-16.7681375zm-9.3341424 49.5223188h-14.8803932c-.7194928 0-1.3040551-.5866318-1.3040551-1.3048292v-4.9079556h17.4919464v4.9079556c-.0017215.7181974-.5898087 1.3048292-1.3074981 1.3048292zm9.4229211-22.8422206c-1.7161424 2.9064192-4.1642378 5.3364462-7.0777861 7.0269496l-1.0392764.5990173v4.8421728h-17.4919464v-4.8546403l-1.0356696-.6026264c-2.9100233-1.6887809-5.3527083-4.1187259-7.0600794-7.0233406-1.7570478-2.9900011-2.6861502-6.4117736-2.6861502-9.8994931 0-5.2225976 2.0323192-10.1323577 5.7240542-13.8262841 3.6934565-3.6939265 8.596779-5.727452 13.8180818-5.727452 5.2194993 0 10.1280683 2.0354121 13.8215248 5.727452 3.6845212 3.6939264 5.7187258 8.601882 5.7187258 13.8262841 0 3.492969-.9291023 6.9184326-2.6914785 9.9119607zm-22.1749206-41.89823837c.2753533 1.04161587-.3447041 2.11005347-1.385702 2.38737477-1.040998.2755168-2.1088017-.3466311-2.3840731-1.388247l-2.035926-7.68461374c-.2753534-1.04350243.344704-2.11177594 1.3857019-2.38548822 1.040998-.27551679 2.1105232.34490864 2.3859585 1.38652453l2.0342046 7.6846137zm-13.5906837 5.66347367c.5631668.9189908.2771567 2.118912-.6412889 2.6824131-.9167242.5653057-2.1194584.2790439-2.6825433-.6382245l-4.1589094-6.7762859c-.5631668-.91899083-.2753533-2.12071651.6412889-2.68413564.9167241-.56350116 2.1194584-.27732131 2.6825433.64166951l4.1589094 6.77439943zm-8.72285631 13.1204723c.92557741.5528381 1.22937601 1.7491502.67686591 2.6734726-.54898523.9261268-1.7463911 1.2319103-2.67188657.6808767l-6.82907448-4.0672152c-.923774-.5510336-1.2275726-1.7491502-.67858738-2.6753591.55070669-.9261268 1.74811256-1.2283013 2.67377198-.6789902l6.82907449 4.0672152zm32.96395161-18.78394597c-.2735499 1.04161587.3447041 2.11005347 1.385702 2.38737477 1.0446049.2755168 2.1105232-.3466311 2.3840731-1.388247l2.035926-7.68461374c.2735499-1.04350243-.344704-2.11177594-1.3839805-2.38548822-1.0428833-.27551679-2.1105231.34490864-2.3859584 1.38652453l-2.0359261 7.6846137zm13.5906018 5.66347367c-.5613634.9189908-.2753534 2.118912.6412888 2.6824131.9202491.5653057 2.1194584.2790439 2.6825433-.6382245l4.1607129-6.7762859c.5613634-.91899083.2771567-2.12071651-.6431743-2.68413564-.9184456-.56350116-2.117655-.27732131-2.6825433.64166951l-4.1589094 6.77439943zm8.7264631 13.1204723c-.9255774.5528381-1.2311795 1.7491502-.6785873 2.6734726.5489852.9261268 1.7463911 1.2319103 2.6718865.6808767l6.830878-4.0672152c.9255774-.5510336 1.2258511-1.7491502.6785873-2.6753591-.5525101-.9261268-1.7481125-1.2283013-2.6754934-.6789902z" fill="#14cce1" fill-rule="evenodd"/><path d="m50.8083427 61.294133v11.2797427c0 3.2891112-2.6772825 5.9661252-5.9664894 5.9661252h-14.8803933c-3.2883988 0-5.961161-2.6761226-5.961161-5.9661252v-11.2976832c-3.0439768-2.0321739-5.6002953-4.7367164-7.4528666-7.8904548-2.1780208-3.7017687-3.3290326-7.9433116-3.3290326-12.2631007 0-6.4680992 2.5168118-12.5483729 7.0872406-17.1215147 4.5678605-4.5724139 10.6478676-7.091713 17.1119194-7.091713 6.4615023 0 12.5399023 2.5188241 17.111777 7.0915705l.0002923.0002106c4.5683862 4.5746999 7.0854512 10.6555321 7.0854512 17.1214466 0 4.3258555-1.1540436 8.5712732-3.337939 12.277381-1.858059 3.156449-4.4203666 5.8620442-7.4687986 7.894115zm-5.1592373 6.8699005h-16.4919464v4.4079556c0 .442818.361467.8048292.8040551.8048292h14.8803932c.4420786 0 .8064389-.3635676.8074981-.8048292zm-16.4935859-5.1612961h16.4919464v-4.6310908l.2503155-.1442767 1.0380302-.5982966c2.8397915-1.6477082 5.2258657-4.0165229 6.89817-6.8486989l-.0003274.0005553c1.716313-2.9152863 2.6223527-6.2529376 2.6223527-9.6582927 0-5.0882019-1.9790044-9.8702831-5.5722114-13.4726629-3.6005952-3.5992142-8.3823876-5.5810732-13.4680392-5.5810732-5.0876144 0-9.8640627 1.9800815-13.4644235 5.5809004-3.5978283 3.599964-5.5777125 8.3825081-5.5777125 13.4728357 0 3.3978932.9049284 6.7323192 2.6171968 9.6461182 1.6637577 2.8304187 4.0444155 5.198681 6.8804968 6.8445513l1.2842056.7472424zm3.4037871-52.6890837c-.2309211.8004112-.863819 1.4633614-1.7274725 1.6934378-1.307985.3461792-2.6495523-.4351581-2.9953265-1.7435545l-2.0360529-7.68509316c-.3458082-1.3105042.4336102-2.65260204 1.7412257-2.99641608 1.3083098-.34626516 2.6513161.43375485 2.9972387 1.74193315l2.509125 9.47872039zm-13.5603825 4.3535701c.6062931 1.1355977.2313901 2.5594383-.8788471 3.2406094-1.1520174.7104012-2.6632891.3508001-3.3711259-.8022699l-4.1590869-6.7765754c-.70711268-1.15388554-.3462218-2.66326903.8057731-3.37134902 1.1527242-.70856798 2.6635238-.34777148 3.3704857.80603615l4.2328011 6.89476067zm-8.0708193 13.7530815c.4019094.7358827.4154646 1.6580015-.0450598 2.428432-.6901061 1.1641948-2.19489637 1.5479127-3.35784615.8555004l-6.82936896-4.0673907c-1.16053144-.69226-1.54203241-2.1964903-.85220509-3.360317.69142669-1.1627765 2.19516014-1.5439034 3.35938073-.853023l8.38989487 4.9967983zm31.3428027-18.1072389-.4898713.4901621.4754941-1.79475506 2.0358658-7.68438578c.3460512-1.3086646 1.6873581-2.08812293 2.9966856-1.74221476 1.3061433.34399647 2.0838033 1.68542396 1.739964 2.9970504l-2.0356501 7.6835674c-.3439257 1.3095909-1.6840635 2.0905222-2.996385 1.744393-.8630976-.2299288-1.4953431-.8930153-1.7261031-1.6938173zm13.4973996 4.4800357-.0091726-.018356.1452964-.2366717 4.1590553-6.77463684c.7092463-1.15384025 2.2160384-1.51400644 3.3695661-.80627323 1.1546007.70683705 1.5146844 2.21564056.8082041 3.37219537l-4.1606864 6.7762428c-.7079225 1.1532096-2.2153311 1.5122172-3.370511.8025944-1.0685502-.6568859-1.455406-2.0022282-.9417519-3.1150948zm9.0323852 12.6979444.0004939-.0002946 6.8283531-4.067858c1.1647922-.6899358 2.666236-.3093811 3.3607812.8548361.6879964 1.1643898.3080316 2.6679581-.8532606 3.3593222l-6.8308853 4.0672196c-1.1628926.6923782-2.6676829.3086603-3.3568335-.8539296-.6941179-1.161053-.3117254-2.6646017.8513512-3.3592957z" stroke="#14cce1"/></g></g></svg>